# xmcd
#
# Track frame offsets:
#	150
#	29943
#	55861
#	87135
#	116759
#	147128
#	176466
#	234540
#	257380
#	300478
#	322667
#
# Disc length: 4745 seconds
#
# Revision: 0
# Processed by: cddbd v1.5.2PL0 Copyright (c) Steve Scherf et al.
# Submitted via: audiograbber 1.83.01
#
DISCID=8812870b
DTITLE=Grateful Dead - 92-07-01 Buckeye Lake Music Centre, Hebron OH
DYEAR=1900
DGENRE=
TTITLE0=Touch Of Grey
TTITLE1=Greatest Story Ever Told
TTITLE2=Stagger Lee
TTITLE3=When I Paint My Masterpiece
TTITLE4=Brown Eyed Women
TTITLE5=Picasso Moon
TTITLE6=Bird Song
TTITLE7=Promised Land
TTITLE8=Saint Of Circumstance
TTITLE9=In The Midnight Hour
TTITLE10=West LA Fadeaway
EXTD=
EXTT0=
EXTT1=
EXTT2=
EXTT3=
EXTT4=
EXTT5=
EXTT6=
EXTT7=
EXTT8=
EXTT9=
EXTT10=
PLAYORDER=
